<svg viewBox="0 0 847 989" xmlns:xlink="http://www.w3.org/1999/xlink" xmlns="http://www.w3.org/2000/svg" width="847" height="989" fill="none"><path fill="#fff" d="M537.984 73.551c5.816.729 7.997 0 10.178.729 133.042 80.19 223.191 193.914 257.36 347.003 8.724 38.637 7.27 78.732-2.908 118.098-21.083 84.564-91.602 142.884-178.116 147.987-45.074 2.916-88.695-2.187-127.953-26.973-2.908-21.141-5.089-42.282-9.451-61.965-7.27-32.076-23.991-58.32-53.799-74.358-21.81-12.393-43.62-12.393-55.252-.729-15.267 15.309-15.267 35.721-5.816 52.488 13.086 23.328 29.08 45.198 45.801 65.61 10.905 13.122 25.445 24.057 38.532 34.992-12.36 82.377-90.149 117.369-183.206 83.106-2.908-11.664-5.816-24.057-9.451-35.721-14.54-43.011-41.439-75.816-85.06-91.125-16.721-5.832-34.896-8.019-49.436 7.29-10.905 11.664-10.905 32.076.727 52.488 18.902 32.076 47.255 54.675 77.79 74.358 10.905 6.561 21.81 13.122 32.715 18.954C226.099 913.358 111.959 1003.75 0 952.723c.727 9.477 0 17.496 2.908 21.87 3.635 5.103 11.632 8.019 18.175 9.477 61.796 11.664 119.229 4.374 166.484-40.824 35.624-33.533 59.615-74.357 75.609-121.013 2.181-6.561 4.362-13.122 7.27-19.683 0-.729 1.454-1.458 4.362-3.645 6.543.729 14.54.729 22.537 2.187 97.419 15.309 148.31-10.935 193.384-102.06 8.724 2.916 18.902 5.832 28.353 9.477 55.98 18.954 111.959 20.412 168.665 1.458 92.33-30.618 151.945-110.079 158.488-210.681 3.635-54.675-5.816-107.163-25.446-158.192-47.982-123.201-126.499-220.158-244.273-283.58-5.817-3.646-12.36-6.562-18.176-10.207-.727-.729-1.454-2.187-3.635-6.561 24.719-5.832 47.983-3.645 71.247-2.187 22.537.73 45.801 2.916 70.519 4.374-2.181-18.954-12.359-26.244-24.718-30.618-14.54-4.374-29.08-10.206-43.62-10.935-39.258-1.458-79.244-2.187-119.229 0-31.261 2.187-39.985 18.954-26.172 44.47 29.807 53.945 60.341 107.891 90.875 161.837 5.09 8.748 11.633 16.038 19.63 26.244 13.813-16.038 7.997-27.702 2.908-38.637-20.356-39.366-38.532-78.732-58.161-121.743ZM151.217 661.853c50.164 6.561 81.425 38.637 83.606 83.835-33.442-21.87-65.431-41.553-83.606-83.835Zm245.728-112.995c42.894 10.206 63.25 39.366 58.888 83.835-27.627-23.328-51.618-45.198-58.888-83.835Z" opacity=".05"/></svg>