<?xml version="1.0" encoding="UTF-8"?>
<svg id="Calque_1" xmlns="http://www.w3.org/2000/svg" version="1.1" viewBox="0 0 1080 1080">
  <!-- Generator: Adobe Illustrator 30.1.0, SVG Export Plug-In . SVG Version: 2.1.1 Build 136)  -->
  <defs>
    <style>
      .st0 {
        fill: #fff;
      }
    </style>
  </defs>
  <g>
    <path class="st0" d="M906.4,707.8c-2.5,8.5,0,18.3-8.9,23.5-3.5,2.1-10.7,2-11.9,5.6-1.4,4.1.2,12.2-1,18.2-1.9,9.1-11,19.9-12.8,29.2-3.8,20.1,12,33.3,10.1,55.6-5,58.9-120.3,60.1-125.9,13.7-4.8-40.3,55.1-49.2,83.8-42.7-.2-6.2.4-12.9,3.5-18.4-24.9,11.8-61.4,4.7-66-26.7-6.4-44.2,28.6-69.8,70.2-65,8.2,1,15.7,6,22.9,6.9,5.6.7,34.5-1.2,35.9,0ZM828.9,729.1c-16.8,3.8-19.4,42.4-2.1,43.5,23.2,1.5,29.8-49.9,2.1-43.5ZM843.2,835.7c-1.5-2.3-50.5-8.1-46.7,12.5,2.8,15.6,42.1,12.4,46.6-5.2.5-1.9,1.1-5.8.2-7.2Z"/>
    <path class="st0" d="M684.2,702.5l-10.6,86.5c-3.3,23.9,13,23.6,26.3,8.9,20.4-22.6,14.7-66.8,21-95.4h42l-16.5,136.5c-17.2,4.1-38.8,4.3-36.8-19.3-14,16.8-36.1,28.5-57.8,19.3-21.8-9.3-21.2-34.8-20.1-55.1,1.5-26.3,8.3-54.9,10.5-81.4h42Z"/>
    <path class="st0" d="M944.9,784.7c0,21.5,12,27.5,32,24.1,19.1-3.3,26-27.1,44.2,5.7-48.1,52.2-132.7,29.4-115.6-50.8,6.4-30,30.1-58.1,61.8-62.4,31-4.3,63.2,11.2,55.6,46.9-6,28.1-54.4,34.4-78,36.6ZM948.4,758.5c8.8-1.9,48.3-8.8,35.1-25.5-10.4-13.1-36.8,11.9-35.1,25.5Z"/>
    <path class="st0" d="M455,784.7c0,22,13.5,28.2,33.7,24.1,7-1.4,14.3-9.4,20.5-11.1,12-3.3,15.3,9.9,22.7,15.9-50.7,55.3-136.5,28.1-114.5-55.1,9.4-35.8,40.8-61.5,78.7-57.7,25.6,2.6,45.7,24.2,36.3,50.2-9.3,25.7-53.9,31.4-77.4,33.7ZM493.1,747.5c5.4-5.3,5.6-16-3.8-17.1-16.8-2.1-27.7,13.2-30.7,28.1,8.8-3.4,27.7-4.3,34.5-11Z"/>
    <path class="st0" d="M630,702.5l-3.5,29.7h-26.2c-6.3,35.3-5.7,74.4-14.6,108.8-7.1,27.5-12.9,33.9-43.2,31.1l15.9-135.6c.2-9.5-12.3-3.6-15.2-13.1-.7-2.3.6-15.9,1.3-18.2,1.9-6,15.4-.3,18.2-4.5,1.6-2.3.3-7.8,1.2-11.1,9.3-35.4,41.4-53.4,76.6-43.3-2.6,6.3-2,15.6-3.9,21.5-2.5,7.6-14.9,5.5-20.7,7.3-10.4,3.3-12.4,18.1-13.9,27.2h28Z"/>
    <path class="st0" d="M754.2,567.8l-5.2,47.2c9.3-9.9,27.2-19.9,39.4-8.8,13.7,12.5-.4,55.1.6,72.4-1.5,4.8-11.3,2.4-15.5,2.9-2.1-12.3,10.5-57.1,2.7-64.8-9.6-9.5-26.1,11.1-29.3,19.8-2.8,7.9-5.1,43.3-6.8,44.8-1.4,1.2-12.4-.4-15.6.2l14.1-113.6h15.7Z"/>
    <path class="st0" d="M818.9,648.3c-.2,14,6.2,24.5,21.4,22.4,7.7-1.1,22.7-16.9,25.6-5.4,1.8,7-18.2,16.6-23.8,17.6-56.9,9.7-44.7-84.2,5.4-81.7,9.6.5,22.4,9.2,22,19.8-.7,21.7-34.3,25.5-50.7,27.3ZM822.4,636c8.4.6,36.6-4.4,31.9-17-6-16.1-33.7,3-31.9,17Z"/>
    <path class="st0" d="M728,571.3c1.1,22.3-20,11.7-35,14l-10.5,96.2h-15.8s10.5-96.2,10.5-96.2h-31.5v-14h82.2Z"/>
  </g>
  <g>
    <path class="st0" d="M203.2,333.4c-.5,1-1.1,1.7-1.7,3.5-3.8,5.3-8.4,5.8-13.8,2.5-9.7-6-5.8-22.9.7-30.4,8,4.9,16.2,14.5,14.9,24.4Z"/>
    <path class="st0" d="M556.5,244.2c2.3,6.7,10.9,15.4,14.9,22.7,26.7,49.2,11.4,99.6-18,143-5.9,8.6-22.1,25.2-25.3,32.4-3.5,7.7-5.1,21.9-8.7,31.5-2.6,6.7-6.5,13.4-10,19.7,28.8-4.5,53.5-19,75.2-37.6.4,0,1.2-1.3,1.7-1.7.6-.5,1.5-1.1,1.7-1.7,8.2-7.6,31.9-30,34.1-40.1.9-3.9-5.2-14.2-4.4-19.4-4.3,2.3-1.6,6.8-8.8,4.5-8.5-2.7-6.9-11.7-5.1-18.5,6.1-.8,8.4,3.9,12.2,7-1.2-30.4,6.9-62.4,27.1-85.7l-10.5,22.8c-8.7,21.6-14.6,52-6.3,74.5.9,2.4-.6,3,3.6,2.4,7.9-18.5,16.5-37.1,21-56.9,1.2-5.5-3.5.7-6.2,1-10,1.3-11.6-9.8-11.3-17.5,7.8-1,15.7,2.5,17.5,10.5l3.5-5.2c-4.2,52.8-26.6,103.8-66.4,139.1,32.5-13.2,61.1-39.3,73.5-72.6,3.1-.4,1.8,4,1.3,5.7-10.4,39.3-56.6,72.2-92.3,87-2,.2-2.2,0-3.5,1.7-4.3,1.8-12.4,2.4-17.5,4.4-7.7,3-14.4,8.9-22.8,9.6,1.5,4.3,14.7-.9,15.7,4.4,1.9,9.9-31.2,19.6-17.5-2.6-8.3,4-23.1,5.1-30.4,8.9-10.4,5.5-34.1,35.4-44.8,45.3,4-3,15.9,15.7,5.9,19.1-11.9,3.9-9.1-16.6-5.9-19.1-.4.4-2.9.4-4.4,1.7-40.8,37.2-88.4,69.5-116.3,118.2,11.5,1.8,24.2-1.8,35.4-4.9,7.8-2.1,33.4-10.8,38.7-15.1,2-1.7,4.4-14.3,4.7-17.6-9.4,10.4-21.6,3.8-18.1-10.1.5-1.9,6.9-13.9,7.6-14.3,2.7-1.9,9,8.2,9.7,10.4,1.2,4.2,1.1,9.7.8,14.1,3.8-4.2,7.8-16.5,11.5-22.6,10.1-16.7,24.5-30.9,41.1-41.1,5.7-3.5,15.1-8.9,20.8-8.9-23.4,15.9-47.4,34.6-57.7,62.1,6.3-5.5,12.4-7.1,19.2-.9-4.4,3.7-8.9,12.6-15.7,8.8-3-1.6-2.2-6.1-5.2-6.2,1.1,1.8-7.6,19.4-.9,17.5,11.5-8.9,29-15.5,39.4-25.3,5-4.8-3-.7-5.2-1.7-13-5.8.3-20.9,9.6-23.6,3.3-1,2.3.5,2.6,2.5.9,6.9-.2,13.7-2.6,20.1,13.4-9.1,25.1-21.5,39.3-28.8-10.1,10.6-20.8,20.6-31.5,30.6-.6.6-1.2,1.2-1.7,1.7-4.3,4-8,4.3-12.2,10.5,8.1-1,12.7,5.7,15.7,12.2-10.7,3.4-24.4.5-15.7-12.2-4.8.6-10.2,6.7-14,9.6,6.7.9,10,3,12.2,9.6-9.4,3.2-16,2.3-14.9-8.7-18.2,14.1-40.3,27.4-61.5,36.5-14.4,6.2-30.6,9.2-44.4,16,22.6-.3,39.2-4.7,37.6,24.5,9.3-17.6,25.6-30.1,46.4-22.7l-7,38.5c-52.7-13.4-44.3,61.4-50.8,93.5-.4,2-.7,3.3-2.6,4.4h-36.7c-1.4,0-3.3-4.2-2.7-6l15.8-132.2c-24.1,12-28.3,30.5-32.7,55.6-4.8,27.5-5.4,56.6-2.3,84.3-31.5.3-69.6-10.2-70.1-48.1-.4-33.4,16.8-76,29.6-106.5-.4-2-27.2-23.4-31.2-27.3-.2-.4-1.2-1.3-1.7-1.7-.5-.5-.9-1.6-1.7-1.7-9.5-9.3-19.3-19.8-28-29.7-.3-1.2-.9-1.3-1.7-1.7-3.3-3.8-7.5-8.5-10.5-12.2-.2-1-1-1.3-1.7-1.7-8.6-10.9-18.9-31.8-28-40.2.8,4.7,2.7,8.5-.2,12.9-9.5,14.6-31.1-.5-36.5-12.1,11.8-7.8,25.4-11.3,36.7-.9-.3-2-3.2-5.6-.9-7,1.5,3.7,6.1,6.4,7.9,8.7-4-5.5,0-16.9,3.1-22.3.6-1.1,0-3.4,3-2.2,1.5.6,9.3,9.1,10.1,10.9,6.3,15.2-10,21.9-16.2,13.6.4.5.5,2.8,1.7,4.4,22.3,28.2,47.2,54.2,74.4,77.9,2.5-8.7,0-17.6-.9-26.2-3.2-.3-1,3.9-3.5,6.1-5.4,4.9-16,3.8-7.8-6.1s10.5.3,9.4-4.3c-2.4-10.7-13.1-24-20.9-31.6-.2-1.8,3.2-.4,3.5-.9l1.7,1.7c11.8,14.9,23.6,25.8,26.1,46.5.7,6.2-.9,13.7.2,19.1.9,4.8,15.9,12.7,20.1,16.6,6.1-8.2,10.7-17.8,16.6-26.2,1.4-.3,1.5-.4,1.7-1.7,3.1-4.4,7.4-9.9,10.5-14,7.5-5.7,17.1-15.3,22.7-22.7,42.2-32.3,93.4-60.3,133.8-92.8,39.4-31.7,84.3-106.7,28.8-144.1-41.2-27.7-84.3-8.1-113.5,26.1-1.6,1.8-11.3,19.5-14,16.6,7.9-32.8,42.8-64.3,76.3-68,14.2-1.6,27.7,1.7,40.9,1.6-5.5-6.5-3.8-17.3,4.3-21,9.3,9.5,12.9,20.8-4.3,21,2.2,2.6,15.9,6.5,20.5,8.4,1.8.8,8.5,7.4,7.3,1.4-6.3-32-28-55.9-59.3-64.9-26.5-7.7-48.4-4-74.9-1.4-1.9.2-5.9,2.1-5.6-1.2,42.7-12.4,91.3-14.8,125.9,17.5,3-8.7.6-15.7,0-24.5-3-.3-1.5,4-4.6,5.1-10.2,3.7-13.2-9.2-14.7-16.4,5.4-2.5,12.7.3,16.7,4.3-.5-9.3-7.4-22.3-13.4-30.3-3.4-4.5-14.1-13.1-15.4-16.1-.4-.9-.3-3,.8-2.6,20.2,14.3,36.6,37,39.2,62.3.9,8.6-1.2,19.5.6,27.4,1.2,5.4,13.3,22,16.7,30.5,5.6,14.2,6.3,26.9,10,40.7,1.9,7.1,7,16.6,8.8,24.4,31.3-30.9,56.2-71.7,47.3-117.3-5.5-28.2-23-51.1-42.9-70.8,2.7-1.8,8.3,3.7,10.3,5.4,4.4,3.7,7.8,7.7,12.4,11.2-6.8-20.2,5-35.3,18.4-49,9.8,11.4,23,39.2,9.5,51.5-11.3,10.3-18.1,4.9-27.9-2.5Z"/>
    <path class="st0" d="M225.9,657c.6.6,1.2,1.2,1.7,1.7.6.6,1.2,1.2,1.7,1.7,6.9,15.9-16.7,18.1-24.6,8-6-7.7,14.1-12.9,21.1-11.5Z"/>
    <path class="st0" d="M574,447.1c-6.5,13.2-21.4,31.2-37.4,20.8-15.2-10-1.6-29,13.9-31.1,7.2-1,26.6-2.9,25.2,6.8-.7,1.1-1.7,1.1-1.7,3.5Z"/>
    <path class="st0" d="M575.8,443.6c1.2-2,8.1-10.5,10.5-8.7,1.2,6.2,4.4,11.2,1.8,17.5-.6.6-1.1,1.2-1.7,1.7-.6.6-1.1,1.2-1.7,1.7-6.2,1.1-10.5-2.4-10.5-8.7.5-1.1,1.4-1.1,1.7-3.5Z"/>
    <path class="st0" d="M203.2,333.4c9.4-21.2,31-40.5,51.6-50.7l-31.4,29.8c-6.9,9.5-12.8,19.6-15,31.3,27.7-30.5,66.4-43.3,106.7-47.2.4,2.5-3,2.4-4.9,3-9.4,3.1-19.1,4.5-28.8,8-27.2,9.7-45.7,22.1-62.5,45-.6.3-1.3,1.2-1.7,1.7-.8,1.1-2,1-1.7,3.5-5.9,10-9.2,15.2-11.7,27.6-1.1,5.5-5.3,29.4.4,31.8,30.4-63,127.3-60.5,147.8,7.9-3.6,3.5-5.8-5.2-8.8-8.7-42.4-48.8-126.1-32.5-116.7,41.5,7.1,56.1,71,98.9,96.8,146.4.5,1.9-3.2,5.2-4.6,7.1-11.5,8.8-14,11.3-22.7,22.7-1.9,1.4-6.1,5.7-7.8,5.3-4.6-8.4-10.1-16.4-14.9-24.5,3.1,8-10.1,9.8-15.7,7-1.2-8.4,13-14,15.7-7-5.3-9-13.4-29-21.8-35-5.8-4.2-23.5-8.2-31.8-11.9-23-10.3-48.2-24.7-67.1-41.4-13.8-12.2-16.5-19-33.2-28.9-1.5-1.5-1.3-1.4-3.5-1.7-19.8-12.2-36.2-26.6-44.6-49-.7-1.9-4.6-11.6-.9-12.2,1,6.9,5.3,12.1,8.8,17.5-4.8-12.7,16.1-11.6,21-2.6-3.4,5.9-18.6,8.9-21,2.6,10.1,15.7,20.9,25.8,38.5,33.2-16.4-33.7-23.7-69.5-15.7-106.7-13.9,6.8-19.4-5.7-21-17.5,5.2,0,17.9,2.2,20.1,7,1.5,3.2-.7,8.5,2.6,8.7,0-2.4.2-4.7.8-7s1.9-9.5,4.4-10.4l-3.5,26.2c2.7.1,1.9-3.3,4.5-5.1,9.7-6.5,20.9-1.1,21.7-1.9.6-.6,3-13.3,3.5-15.8-17.8,16.9-30.6-9.6-11.4-8.9,5.5.2,10.3,5.8,12.2,5.4,3.4-.7,10.6-24.1,16.7-26.2-23.1,47.2-27.8,97.4-10,147.4,11.7,32.8,22.4,43.1,53.2,58.8,12.2,6.3,25.8,11.5,39.1,15.1-6.3-10-13.6-19.2-19.5-29.5-4.1-7-9.8-23.7-13.6-28.4-2.3-2.8-13.9-9-18.5-13-7.8-6.8-19.1-18.9-23.6-28,6,16-19,11.4-19.2-3.5,4.2-.2,17.6-.9,19.2,3.5-2.4-4.9-5.8-14.9-6.9-20.3-.3-1.4-.8-6.2,1.6-3.3-.3,3.3,2.7,6,3.5,7.9-6.2-16.4,23.2-14.6,28-4.4,1.1,2.4-5.9,5.6-7.6,6.4-4.8,2.2-8.2,4.6-13.9,2.9-.8-.2-6.4-4.5-6.5-4.9,1.3,2.9,1.4,6.6,3.2,9.9,7.6,14,21.2,29.2,37,33.8-4.2-28.6-12.8-53.4-10.6-83.2.9-11.9,10.1-52.5,14.1-63.8,1-1.4,1.4-1,1.7-3.5ZM129.7,385.9c.9-7.3-2.6-7.3-1.7,0h1.7ZM107,422.6c3.4,24.7,12.6,49.2,28.9,68.2-10.4-33.4-14.5-68.6-7.9-103.2-3.3,1.4-4.1,6.7-7.8,8.8-3.8,2.2-7,2.4-11.1.5-2.7-1.2-1-4.5-3.8-4.1.3,9.3-1.3,19,1.8,28l9.6-14c8.3-1.8,9.6,29.6-4.5,21.9-3-1.6-2.2-6.1-5.2-6.2Z"/>
    <path class="st0" d="M567,492.6c1.4-.6,2.6-1.4,3.5-1.7,6.6-.7,13.2,3.1,17.5,7.9-7.4,12.1-30.4,6.2-21-6.1Z"/>
    <path class="st0" d="M115.7,496.1c1.4.9,2.6,1.2,3.5,1.7,9.8,10.1,2.4,25.4-11,24.1-4.9-.5-27.1-11.3-23.2-17.2,4-6.1,23.5-9.7,30.7-8.7Z"/>
    <path class="st0" d="M472.6,627.3c15.3-4.2,31.3,12.9,9.5,15.7-9.4,1.2-16.7-4.8-11.2-14,.2-.3,1.6-1.7,1.7-1.7Z"/>
    <path class="st0" d="M285.4,648.3c-.4.6-1.3,1.1-1.7,1.7-4.5.9-9.6-.7-14-1.8,1.4-10.7,18.4-13.2,15.7,0Z"/>
    <path class="st0" d="M218.9,592.3c.6-.9-1.1-7.3.9-10.5,1.2-1.9,11.9-6.5,13.1-5.2,1,8.8-1.6,19.1-12.2,17.5-.2-.3.2-2-1.7-1.7Z"/>
    <path class="st0" d="M196.2,625.5c.5.6,1.2,1.1,1.7,1.7,3.9,14.4-12,13.2-21,8.7-2.2-3,10.8-15.4,19.2-10.5Z"/>
    <path class="st0" d="M215.4,357.9c.7-1.3,1.3-2.9,1.7-3.5.4-.6,1.3-1.1,1.7-1.7,9.5-4.6,15.6.3,22.7,6.1-5.9,8.4-24.7,12.6-26.2-.9Z"/>
    <path class="st0" d="M183.9,611.5c.6.7,1.3,1.2,1.7,1.7,2.1,9.9-6.7,11.8-14.5,10.1-15.3-3.4,3-18.6,12.7-11.9Z"/>
    <path class="st0" d="M346.6,462.8c17.1-42.9,86.1-28.3,61.6,22.2-12.7,26.2-52.5,41.7-74.5,60-12.7-20.9-57.3-56.6-40.3-83.8,8.1-13,25.1-14.7,38.2-8.6,6.6,3.1,9.1,9.2,15,10.3Z"/>
    <path class="st0" d="M608.9,538c-.9,1.3-25.8,12.7-29.3,13.6-13.7,3.6-27.5,4.9-37.1-7.4-8.8-11.3-7.7-22.4,3.6-31.3,15.3-12,31.9-3.3,45.9,6.3,3.5,2.4,20,14.4,16.8,18.9Z"/>
    <path class="st0" d="M281.4,255.1c11.8-2,27.5,2.6,37.2,9.2-11.1,14.5-32,38.9-50.8,21.1-11.6-11,0-28,13.6-30.3Z"/>
    <path class="st0" d="M322.1,342.1c-13.5,3-25.3,9.5-39.5,5.3-25.4-7.4-17.3-41.9,11.5-34.2,5.8,1.5,31.1,25.6,27.9,28.9Z"/>
    <path class="st0" d="M479.6,200.5c17.9-4.8,51.8-10.1,52.6,16.6.4,13.7-14.1,19.2-25.9,15.3-9.7-3.2-24.4-21.5-26.7-31.9Z"/>
    <path class="st0" d="M519.3,239.4c38.5-6.6,36.4,43.5-1.3,33.7-4.4-1.1-25.3-14-26.1-17.7-1-4.4,23-15.3,27.5-16.1Z"/>
    <path class="st0" d="M189.2,261.7c9.7,1.8,24.7,13.9,28.1,23.5,11.1,31.2-34.6,36.7-33.4.2.3-7.3,4.1-16.3,5.3-23.7Z"/>
    <path class="st0" d="M168.1,375.4c5.4,12.2,13.2,37.2.7,47-11.7,9.2-26,1.3-27-12.9-.9-12.7,14.4-30.2,26.3-34.1Z"/>
    <path class="st0" d="M143.7,307.2v27.1c0,.7-5.9,10.8-7.1,12.1-10.5,10.7-28.5,4.5-27.7-12,.6-14.3,22.3-25.3,34.9-27.3Z"/>
    <path class="st0" d="M647.5,233.7c7.2,15.9-3.2,54.3-25.2,41.8-21.6-12.3,8.5-41.1,25.2-41.8Z"/>
    <path class="st0" d="M701.7,357.9c.1,9.9-3.1,25.5-10.4,32.4-17.8,16.9-39.2-6-22-22,8.7-8.1,21.4-8,32.4-10.4Z"/>
    <path class="st0" d="M528.5,543.3c-3.6,10.7-11.7,28.7-24,31.1-25.5,4.9-29.2-31.1,4-32.9,7-.4,13.1,2.4,20,1.8Z"/>
    <path class="st0" d="M554.8,585.3c2.9,3.9-19.9,21.2-25.8,22.4-18,3.5-30.1-16-13.6-27.6,12.4-8.7,26.9,1.2,39.4,5.3Z"/>
    <path class="st0" d="M682.5,261.7c-1.5,13.6-7.7,38.5-25.1,37.9-12.1-.4-15.1-8.6-13.3-19.4,2.4-14.7,26.4-17.6,38.4-18.5Z"/>
    <path class="st0" d="M220.6,265.2c12-12,19.2-15.1,36.7-17.5-.6,16.4-4.1,40.5-25.4,38.5-14.3-1.3-10.2-11.4-11.4-21.1-3.9,3.9-5.3,7.8-12.3,4.4-9-4.4,1-16.6,6.2-20.1,5.8-1.3,5.7,12.6,6.1,15.7Z"/>
    <path class="st0" d="M637,511.8c-12.9,2.5-30.6,10.8-41-1.8-11.7-14.2,2.4-27.8,18.4-23.6,6.1,1.6,26.5,21,22.7,25.4Z"/>
    <path class="st0" d="M371.1,247.7c9.6-.1,27,2,34.2,8.7,6.7,6.3,6.6,22.5-2.5,25.5-21,6.9-31.2-17.2-31.6-34.2Z"/>
    <path class="st0" d="M566.4,286.8c6.6,6.8,7.4,17.4-1.2,22.9-16.5,10.7-32.4-8.1-40.1-20.9,9.8-5.5,33-10.5,41.4-2Z"/>
    <path class="st0" d="M127,520.6c4.1-.2,23.7,12.1,26.8,16.9,8.5,13.1,0,29.3-15.5,24.3-16.5-5.3-16.4-40.9-11.3-41.2Z"/>
    <path class="st0" d="M78.9,422.6c8,0,26.9,8.8,10,14.4-12.7,4.2-22.5-3.1-13.5-12.6,2-.6,1.8-.4,3.5-1.7Z"/>
    <path class="st0" d="M78.9,422.6c-2.4,0-2.2.4-3.5,1.7-4.7,1.5-8.9,1-12.9-2-16.2-12.3,1.2-35.8,13.8-43.4,8.5,11.2,15.6,33.5,2.6,43.7Z"/>
    <path class="st0" d="M426.6,213.1c17.7-2.9,31.3,14.2,16.8,25.6-13.2,10.3-31.2-3.2-40.8-12.9,0-2.8,20.1-12.1,24-12.7Z"/>
    <path class="st0" d="M346.2,365.3c14.3-1.7,26.8,12.2,16.9,24-11.6,13.8-33.7-.9-42.7-11.3,7.1-5.6,16.8-11.6,25.8-12.7Z"/>
    <path class="st0" d="M182.2,291.4c5,15-7.9,52.4-27.2,36.8-17.7-14.4,11.6-37.7,27.2-36.8Z"/>
    <path class="st0" d="M365.3,300.5c15.7-4.7,24.7,10.4,16.3,23.3-2.6,4-19.5,17.4-23.6,16.6-5.5-1.1-7.1-35.6,7.3-39.9Z"/>
    <path class="st0" d="M393.9,335.1c-6-14.3-1.4-49.5,20.9-39.3,20.8,9.5-6,39.5-20.9,39.3Z"/>
    <path class="st0" d="M666.3,302.3c4.2-.9,26.3-1.7,26.6,2.2-5.5,13.5-18.9,35.5-35.5,23.4-10.5-7.7-2.1-23.3,8.9-25.6Z"/>
    <path class="st0" d="M456.2,264.6c-6.4,7.1-35.9,4.1-36.1-.3,7.5-11.6,16.7-27,32.7-20.5,9,3.6,9.4,14.2,3.4,20.9Z"/>
    <path class="st0" d="M612.5,251.2c-1.2,10.6-6.6,31.7-20.1,31.6-9.5,0-14.7-7-12.8-16.3,2.3-11.7,22.9-15.7,32.9-15.3Z"/>
    <path class="st0" d="M538.3,354.5c4.8-1.1,11.3,18.6,10.9,23.1-2.1,24.3-37.8,14.7-21-12.3,1.3-2.1,8.6-10.5,10.2-10.9Z"/>
    <path class="st0" d="M513.7,282.7c6.3,8.4,10.5,28.6-.2,34.7-7,4-13.9,1.8-16.8-5.5-5.2-12.9,8.7-22.2,17-29.3Z"/>
    <path class="st0" d="M457.7,200.5c3.6-.7,18.8,10.3,20.5,14.4,8.8,21.4-16.3,25.1-21.8,11.3-1.7-4.3-3.1-24.9,1.3-25.8Z"/>
    <path class="st0" d="M316.9,312.4c-.3-14.8,29.8-31,34.7-14.5,5.4,18.2-23.3,20.9-34.7,14.5Z"/>
    <path class="st0" d="M532,314.2c7.3,12.1-5.6,42-20.8,30.5-14-10.6,8-31.1,20.8-30.5Z"/>
    <path class="st0" d="M609.9,317.7c3.5.2,2.9,12.1,2.6,14.8-3.6,35.8-45.3,12.7-16.3-7.6,1.8-1.3,12.9-7.3,13.7-7.2Z"/>
    <path class="st0" d="M189.2,580.1c-.9-2.7-2.8-16.1-1.7-17.5,10.1,2.8,20.7,2.4,27,12.3,7.8,12.2-5.6,22.9-17.5,15.8s-7.5-9.8-7.8-10.6c-.5,5-5.5,10.2-10.5,7.9-9.2-4.3,3-14.1,10.5-7.9Z"/>
    <path class="st0" d="M267.9,357.9c-12.2,2.9-38.9-3.9-30.6-21,8.4-17.4,33.6,7.6,30.6,21Z"/>
    <path class="st0" d="M384.2,632.6c4.2.2,5.3,29.6-5.6,32.8-8.9,2.6-15.7.6-16.4-9.3-1-14.9,11.9-17.1,22-23.5Z"/>
    <path class="st0" d="M92.1,324.7c7.6,7.8,20.7,17.6,13.8,29.5-4.3,7.6-9.8,8.7-16.6,2.9-9.7-8.3-3.5-23.6,2.7-32.4Z"/>
    <path class="st0" d="M165.5,480.4c11.8,5.2,24.1,33.8,5.1,34.9-17.1,1-14.4-26.6-5.1-34.9Z"/>
    <path class="st0" d="M658,476.8c-9.6,6.2-36,13.5-33.3-6,2.4-16.7,31.2-6.6,33.3,6Z"/>
    <path class="st0" d="M610.8,279.2c4.5-3.2,17.2,12.9,18.5,17.5,4.6,17.1-23.5,22.2-22-2.6.1-2.1,2.9-14.5,3.5-14.9Z"/>
    <path class="st0" d="M669.7,333.8c3.9-.9,20.6,0,21.5,4.1,1,4.6-13.2,17.8-18.5,18.3-16.1,1.6-17.7-19-3-22.4Z"/>
    <path class="st0" d="M669.7,405.5c4-.9,22.9-.6,23.2,4,.1,1.8-10.8,13.3-13.1,14.9-17.6,12.5-28.1-14.8-10.1-18.9Z"/>
    <path class="st0" d="M654,433.4c7-1.5,26.4,6.4,25,12.7-.4,1.5-11.4,7.1-13.5,7.5-22.6,4.6-24.9-17.3-11.5-20.3Z"/>
    <path class="st0" d="M589.8,406.9c-1.2,11.9-26.2,29.3-31.1,12.7-5.3-17.9,20-18.5,31.1-12.7Z"/>
    <path class="st0" d="M427.1,329.9c-2.1-10.7,7.8-36.9,20.9-25.3s-9.2,27-20.9,25.3Z"/>
    <path class="st0" d="M343.1,345.7c-4.5,9.2-7.3,21.6-20.1,21.1-15.6-.6-12.1-19.3,3.4-21.1,5.2-.6,11.3.5,16.7,0Z"/>
    <path class="st0" d="M355.4,347.4c10.7-4.5,37.2-3.3,28.9,14-7.2,14.9-26.8-4.7-28.9-14Z"/>
    <path class="st0" d="M538.6,555.8c7.6-1.4,18,6,23.2,11.1-6.5,5.4-17.1,12.4-25.8,8.3-8.7-4.1-6.7-17.8,2.6-19.4Z"/>
    <path class="st0" d="M612.5,217.9c2.6,6.9,4,25-4.7,27.6-23.4,7-14.6-27.6,4.7-27.6Z"/>
    <path class="st0" d="M496.6,610.1c7.9-1.6,18.2,5.4,23.2,11.1-7.8,7-22.3,15-29.8,3.6-3.8-5.8,0-13.3,6.7-14.7Z"/>
    <path class="st0" d="M475.6,582.1c8.7-1.8,17.7,5.1,23.2,11.1-5.7,5.1-16.6,11.5-24,8.4-9.4-3.9-9.8-17.3.8-19.4Z"/>
    <path class="st0" d="M91.2,532.8c10.1-5.6,34.5-6.1,29.5,11-4.6,15.5-27.1-.9-29.5-11Z"/>
    <path class="st0" d="M600.2,371.9c-.6,8.2-7.7,22-16.9,22.3-8.8.3-10.2-5.2-9.1-12.6,1.8-11.9,16.6-9.7,26.1-9.7Z"/>
    <path class="st0" d="M278.4,629.1c.5.7-3.4,5.9-4.3,7-25.5,31.4-41-23.7,4.3-7Z"/>
    <path class="st0" d="M316.3,274.3c4.3-1.3,22.9-.4,21.5,5.7-.2,1.1-8.1,8.3-9.9,9.4-18,11.4-24-11.5-11.6-15.1Z"/>
    <path class="st0" d="M547.1,193.6c8.3-1.4,14.1,29.4-1.9,27.9-14.3-1.3-6.3-26.5,1.9-27.9Z"/>
    <path class="st0" d="M550.4,324.7c8.9-.6,28.2,17.7,12.6,24.9-14.5,6.7-19-24.5-12.6-24.9Z"/>
    <path class="st0" d="M133.2,284.4c5.6,9.7-.8,32-14,25.4-11.8-5.9,3.1-26,14-25.4Z"/>
    <path class="st0" d="M157.6,273.9c2.6,1.8,6.4,23-2.9,25.9-25.1,7.7-6.4-32.4,2.9-25.9Z"/>
    <path class="st0" d="M598.9,418.7c-3.7-3.7-4.3-17-3.9-22.3,6.3,0,19.5,7.1,20.7,13.5,2.1,11.2-11,14.5-16.8,8.8Z"/>
    <path class="st0" d="M164.2,333.7c6-.9,15.2,5.5,19.7,9.3-5,5.2-15.3,12.2-22.7,8.7-9.5-4.4-6.7-16.6,3-18.1Z"/>
    <path class="st0" d="M346.6,270.4c7.4.4,21.3-2.8,24.1,6.5,6.3,21.1-26.2,12.2-24.1-6.5Z"/>
    <path class="st0" d="M175.2,354.4c10.2-7.2,24,35.3,1.8,25.3-8.3-3.7-4.8-23.2-1.8-25.3Z"/>
    <path class="st0" d="M143.7,597.6c.3-.5,9.1-4.7,10-4.9,23.3-5.5,18.6,18.9,5.3,16.8-2.9-.4-17.9-8.2-15.3-11.9Z"/>
    <path class="st0" d="M197.9,506.6c1.4,8.5-5.3,30.4-16.8,21.1-10.3-8.3,6.7-23.5,16.8-21.1Z"/>
    <path class="st0" d="M476.9,546.9c5,.2,5.1,28.4-10.1,24.2-13.3-3.6,2-24.6,10.1-24.2Z"/>
    <path class="st0" d="M427.1,590.6c1.8,9-1.1,28.3-14,21.9-11.1-5.6,3.6-24,14-21.9Z"/>
    <path class="st0" d="M500.1,519.2c10.5-3.2,30.7,10.6,9.7,15-16.1,3.4-20.6-11.7-9.7-15Z"/>
    <path class="st0" d="M72,480.4c3.2-.6,6.2-1.9,9.6-1.9,27.4,0,5.8,38.5-9.6,1.9Z"/>
    <path class="st0" d="M308.1,363.1c-.3.5-9.1,4.7-10,4.9-19.4,4.5-18.6-17.1-3.3-15.4,3,.3,15.5,7.3,13.3,10.5Z"/>
    <path class="st0" d="M248.6,583.6c.4,6.2.8,18.4-6.5,20.6-19.2,5.9-10.3-21.1,6.5-20.6Z"/>
    <path class="st0" d="M165.1,284c-8.2-8.5,5.1-19,13.5-20.6,6.2,8.7-4.9,29.5-13.5,20.6Z"/>
    <path class="st0" d="M208,594.4c20.1-1.8,6.4,30.4-13.5,7.5,0-2.4,10.8-7.3,13.5-7.5Z"/>
    <path class="st0" d="M388.6,340.4c7.7-4.6,25.5,0,20.2,10.5-5.7,11.2-23.4-5.7-20.2-10.5Z"/>
    <path class="st0" d="M414.4,239.4c6.9,6.9-1.9,19.8-12.7,10.1-15.4-13.8,7.2-15.6,12.7-10.1Z"/>
    <path class="st0" d="M456,268.7c5.8-1.3,15.4,20.1,3.2,22.4-11.9,2.3-9.5-21-3.2-22.4Z"/>
    <path class="st0" d="M164.7,371.9c-6.3,1.2-18.2,3.6-20.7-4.7-5-16.6,20.2-9,20.7,4.7Z"/>
    <path class="st0" d="M271.4,298.4c-.3.4-8,4.3-8.7,4.5-9.5,3.1-18.5-5.3-10.5-12.3,7.1-6.2,21.6,4.3,19.1,7.8Z"/>
    <path class="st0" d="M451.6,329.9c-1.9-14.6,21.7-23.6,19.3-7.9-1.2,8-12.8,8.7-19.3,7.9Z"/>
    <path class="st0" d="M341.3,333.4c-10.8,2.7-23,2.5-20.7-12,9.9-5.5,18.2,2.4,20.7,12Z"/>
    <path class="st0" d="M216.7,612c15.7-4.2,15.7,16-1.7,13.2-13.9-2.3-6.5-11,1.7-13.2Z"/>
    <path class="st0" d="M199.2,641.6c15.5-3,14.5,17.5-1.7,13.2s-9.3-11.1,1.7-13.2Z"/>
    <path class="st0" d="M137.5,420.9c4.3-.2,14.2,8.8,11.8,15.2-7.2,19.4-21.9-14.7-11.8-15.2Z"/>
    <path class="st0" d="M589.8,417.4c8.4,2.8,15.9,9.2,10.6,18.5-13,4.4-14.2-9-10.6-18.5Z"/>
    <path class="st0" d="M269.6,660.5c-6.5,1.7-11.7,4.2-16.6-1.8-10-12.2,16.4-14.3,16.6,1.8Z"/>
    <path class="st0" d="M644,350.9c1.7,7.3-12.3,16.9-16.7,10.6-4-12.9,7.1-13.5,16.7-10.6Z"/>
    <path class="st0" d="M418.8,345.2c-1.8-1.7-5.3-12.1-3.9-13.5,23.8-2,14.4,23.4,3.9,13.5Z"/>
    <path class="st0" d="M651,412.1c2,2.2-10,14.1-14,11.5-10.3-11.2,3.7-15.4,14-11.5Z"/>
    <path class="st0" d="M666.7,361.4c1.7,11.9-19.5,15-15.5,2.9,1.9-5.9,10.9-4,15.5-2.9Z"/>
    <path class="st0" d="M658,394.6c1.1,6.9-11.2,14.3-15,8.8-6.4-9.2,9.1-10.1,15-8.8Z"/>
    <path class="st0" d="M623,480.3c-24,8.5-15.9-20-2.6-5.3,1.6,1.7,3.2,2.5,2.6,5.3Z"/>
    <path class="st0" d="M451.4,345.5c-6.1,4.2-15-8.9-7.7-13.9,6.2-.7,12.3,10.7,7.7,13.9Z"/>
    <path class="st0" d="M225.9,683.3c2.2-17.3,21.5-9,11.2-1.9-3.1,2.2-7.5,2-11.2,1.9Z"/>
    <path class="st0" d="M584.5,364.9c-1.1-8.1,8.6-12.1,14-6.1-4.8,4.7-6.6,9.7-14,6.1Z"/>
  </g>
</svg>